<svg width="17" height="17" viewBox="0 0 17 17" fill="none" xmlns="http://www.w3.org/2000/svg">
<path d="M0.823223 1.65882L7.6644 8.5L0.823223 15.3412L0.646447 15.518L0.823223 15.6947L1.30527 16.1768L1.48205 16.3536L1.65882 16.1768L8.5 9.3356L15.3412 16.1768L15.518 16.3536L15.6947 16.1768L16.1768 15.6947L16.3536 15.518L16.1768 15.3412L9.3356 8.5L16.1768 1.65882L16.3536 1.48205L16.1768 1.30527L15.6947 0.823223L15.518 0.646447L15.3412 0.823223L8.5 7.6644L1.65882 0.823223L1.48205 0.646447L1.30527 0.823223L0.823223 1.30527L0.646447 1.48205L0.823223 1.65882Z" fill="#5F5F5F" stroke="#5F5F5F" stroke-width="0.5"/>
</svg>