<svg width="17" height="17" viewBox="0 0 17 17" fill="none" xmlns="http://www.w3.org/2000/svg">
<path d="M16.8647 15.3326L12.4695 10.9374C13.2961 9.8005 13.7849 8.40225 13.7849 6.89208C13.7849 3.09187 10.693 0 6.89208 0C3.09187 0 0 3.09187 0 6.89208C0 10.693 3.09187 13.7842 6.89208 13.7842C8.33283 13.7842 9.67087 13.34 10.7787 12.5814L15.1973 17L16.8647 15.3326V15.3326ZM2.02158 6.89208C2.02158 4.20608 4.20679 2.02087 6.89279 2.02087C9.57879 2.02087 11.764 4.20608 11.764 6.89208C11.764 9.57808 9.57879 11.7633 6.89279 11.7633C4.20608 11.7633 2.02158 9.57808 2.02158 6.89208V6.89208Z" fill="#5F5F5F"/>
</svg>